<svg id="Layer_1" data-name="Layer 1" xmlns="http://www.w3.org/2000/svg" viewBox="0 0 20.42 33"><defs><style>.cls-1{stroke:#000;stroke-miterlimit:10;}</style></defs><title>Untitled-3</title><path class="cls-1" d="M32.8,19.26a1,1,0,0,0,0,.11c0,.1,0,.2,0,.29v13.9a1.36,1.36,0,0,1,0,.4l-.17,0c-1.2,0-3.77,0-4.05,0a.88.88,0,0,1,0-.16v-21c-.12-.06-.21,0-.29,0L25,13.89l-.81.28a.93.93,0,0,1-.23,0,.37.37,0,0,1-.33-.49c0-.1.11-.2.16-.3L27,7.87l3.17-5.48.14-.22a.36.36,0,0,1,.6,0,1.94,1.94,0,0,1,.15.24l5.15,8.91,1.26,2.18a1.67,1.67,0,0,1,.12.23.37.37,0,0,1-.41.49L37,14.13l-3-1.05a.83.83,0,0,0-.32-.07,1.76,1.76,0,0,0,0,.23,9.83,9.83,0,0,0,7.27,8.42,8.74,8.74,0,0,0,1.83.3L43,22c0,.05,0,.07,0,.1L43,24.72l0,.13H42.7A12.67,12.67,0,0,1,33,19.51.63.63,0,0,0,32.8,19.26Z" transform="translate(-23.13 -1.5)"/></svg>